G04*
G04 #@! TF.GenerationSoftware,Altium Limited,Altium Designer,20.2.7 (254)*
G04*
G04 Layer_Color=65535*
%FSLAX44Y44*%
%MOMM*%
G71*
G04*
G04 #@! TF.SameCoordinates,755CDBE2-D8D4-478F-80D2-7ADFAB3A315B*
G04*
G04*
G04 #@! TF.FilePolarity,Positive*
G04*
G01*
G75*
%ADD10C,0.2000*%
D10*
X776000Y40000D02*
G03*
X776000Y40000I-36000J0D01*
G01*
Y460000D02*
G03*
X776000Y460000I-36000J0D01*
G01*
X76000D02*
G03*
X76000Y460000I-36000J0D01*
G01*
Y40000D02*
G03*
X76000Y40000I-36000J0D01*
G01*
X154000Y311000D02*
X679000D01*
Y18000D02*
Y311000D01*
X154000Y18000D02*
X679000D01*
X154000D02*
Y311000D01*
X545000Y395000D02*
Y495000D01*
X395000Y395000D02*
Y495000D01*
Y395000D02*
X545000D01*
X395000Y495000D02*
X545000D01*
X395000Y490500D02*
X545000D01*
X695000D01*
X545000Y495000D02*
X695000D01*
X545000Y395000D02*
X695000D01*
X545000D02*
Y495000D01*
X695000Y395000D02*
Y495000D01*
X235000Y490000D02*
X385000D01*
X235000Y497000D02*
X385000D01*
X235000Y395000D02*
X385000D01*
X235000D02*
Y497000D01*
X385000Y395000D02*
Y497000D01*
X85000Y490000D02*
X235000D01*
X85000Y497000D02*
X235000D01*
X85000Y395000D02*
X235000D01*
X85000D02*
Y497000D01*
X235000Y395000D02*
Y497000D01*
X154987Y329030D02*
Y319033D01*
X159986D01*
X161652Y320699D01*
Y327364D01*
X159986Y329030D01*
X154987D01*
X164984Y319033D02*
Y325698D01*
X168316Y329030D01*
X171648Y325698D01*
Y319033D01*
Y324031D01*
X164984D01*
X174981Y319033D02*
X178313D01*
X176647D01*
Y329030D01*
X174981Y327364D01*
X606671Y389998D02*
X613335Y380002D01*
Y389998D02*
X606671Y380002D01*
X623332Y388332D02*
X621666Y389998D01*
X618334D01*
X616668Y388332D01*
Y386666D01*
X618334Y385000D01*
X621666D01*
X623332Y383334D01*
Y381668D01*
X621666Y380002D01*
X618334D01*
X616668Y381668D01*
X631663Y380002D02*
Y389998D01*
X626665Y385000D01*
X633329D01*
X296671Y389998D02*
X303335Y380002D01*
Y389998D02*
X296671Y380002D01*
X313332Y388332D02*
X311666Y389998D01*
X308334D01*
X306668Y388332D01*
Y386666D01*
X308334Y385000D01*
X311666D01*
X313332Y383334D01*
Y381668D01*
X311666Y380002D01*
X308334D01*
X306668Y381668D01*
X323329Y380002D02*
X316665D01*
X323329Y386666D01*
Y388332D01*
X321663Y389998D01*
X318331D01*
X316665Y388332D01*
X148337Y389998D02*
X155002Y380002D01*
Y389998D02*
X148337Y380002D01*
X164998Y388332D02*
X163332Y389998D01*
X160000D01*
X158334Y388332D01*
Y386666D01*
X160000Y385000D01*
X163332D01*
X164998Y383334D01*
Y381668D01*
X163332Y380002D01*
X160000D01*
X158334Y381668D01*
X168331Y380002D02*
X171663D01*
X169997D01*
Y389998D01*
X168331Y388332D01*
X456671Y389998D02*
X463335Y380002D01*
Y389998D02*
X456671Y380002D01*
X473332Y388332D02*
X471666Y389998D01*
X468334D01*
X466668Y388332D01*
Y386666D01*
X468334Y385000D01*
X471666D01*
X473332Y383334D01*
Y381668D01*
X471666Y380002D01*
X468334D01*
X466668Y381668D01*
X476665Y388332D02*
X478331Y389998D01*
X481663D01*
X483329Y388332D01*
Y386666D01*
X481663Y385000D01*
X479997D01*
X481663D01*
X483329Y383334D01*
Y381668D01*
X481663Y380002D01*
X478331D01*
X476665Y381668D01*
M02*
