M48
;Layer_Color=9474304
;FILE_FORMAT=2:5
INCH,LZ
;TYPE=PLATED
T1F00S00C0.02362
T2F00S00C0.04331
T3F00S00C0.05118
;TYPE=NON_PLATED
T4F00S00C0.12598
%
T01
X0162264Y0130118
Y0135059
X0167264
Y0130118
X0172264
Y0135059
X0212067
Y0130118
X0217067
Y0135059
X0222067
Y0130118
X0262067
Y0135059
X0267067
Y0130118
X0272067
Y0135059
X0125591Y0159449
X0063976Y0168307
X0063976Y0173721
Y0179134
Y0184547
Y0189961
X0058465Y0189961
X0052953
X0047441
X0041929
X0036417
Y0184547
Y0179134
Y0173721
Y0168307
X0041929
X0047441
X0052953
X0058465
X0180512Y0164567
X0230512
T02
X014126Y0014961
X015126
X016126
X017126
X018126
X019126
X020126
X021126
X022126
X023126
X024126
Y0114961
X023126
X022126
X021126
X020126
X019126
X018126
X017126
X016126
X015126
X014126
X013126
X012126
X011126
X010126
Y0014961
X011126
X012126
X013126
T03
X0048228Y0175197
X0077756
X0107283
X0136811
X0165354
X0185039
X0204724
X022441
X0244094
X0263779
T04
X0291339Y0015748
X0015748
Y0181102
X0291339
M30
