G04*
G04 #@! TF.GenerationSoftware,Altium Limited,Altium Designer,20.2.7 (254)*
G04*
G04 Layer_Color=8388736*
%FSLAX44Y44*%
%MOMM*%
G71*
G04*
G04 #@! TF.SameCoordinates,755CDBE2-D8D4-478F-80D2-7ADFAB3A315B*
G04*
G04*
G04 #@! TF.FilePolarity,Negative*
G04*
G01*
G75*
%ADD11C,1.8500*%
%ADD12C,3.3000*%
%ADD13C,2.1000*%
D11*
X282600Y38000D02*
D03*
X308000D02*
D03*
X333400D02*
D03*
X358800D02*
D03*
X257200D02*
D03*
X409600D02*
D03*
X384200D02*
D03*
X435000D02*
D03*
X460400D02*
D03*
X485800D02*
D03*
X511200D02*
D03*
X562000D02*
D03*
X536600D02*
D03*
X612800D02*
D03*
X587400D02*
D03*
X282600Y292000D02*
D03*
X308000D02*
D03*
X333400D02*
D03*
X358800D02*
D03*
X257200D02*
D03*
X409600D02*
D03*
X384200D02*
D03*
X435000D02*
D03*
X460400D02*
D03*
X485800D02*
D03*
X511200D02*
D03*
X562000D02*
D03*
X536600D02*
D03*
X612800D02*
D03*
X587400D02*
D03*
D12*
X740000Y40000D02*
D03*
Y460000D02*
D03*
X40000D02*
D03*
Y40000D02*
D03*
D13*
X420000Y445000D02*
D03*
X520000D02*
D03*
X470000D02*
D03*
X620000D02*
D03*
X670000D02*
D03*
X570000D02*
D03*
X272500D02*
D03*
X347500D02*
D03*
X122500D02*
D03*
X197500D02*
D03*
M02*
