G04*
G04 #@! TF.GenerationSoftware,Altium Limited,Altium Designer,20.2.7 (254)*
G04*
G04 Layer_Physical_Order=2*
G04 Layer_Color=16711680*
%FSLAX44Y44*%
%MOMM*%
G71*
G04*
G04 #@! TF.SameCoordinates,755CDBE2-D8D4-478F-80D2-7ADFAB3A315B*
G04*
G04*
G04 #@! TF.FilePolarity,Positive*
G04*
G01*
G75*
%ADD14C,1.6500*%
%ADD15C,3.2000*%
%ADD16C,2.0000*%
%ADD17C,1.2000*%
%ADD18C,0.5000*%
G04:AMPARAMS|DCode=19|XSize=0.5mm|YSize=0.9mm|CornerRadius=0.05mm|HoleSize=0mm|Usage=FLASHONLY|Rotation=270.000|XOffset=0mm|YOffset=0mm|HoleType=Round|Shape=RoundedRectangle|*
%AMROUNDEDRECTD19*
21,1,0.5000,0.8000,0,0,270.0*
21,1,0.4000,0.9000,0,0,270.0*
1,1,0.1000,-0.4000,-0.2000*
1,1,0.1000,-0.4000,0.2000*
1,1,0.1000,0.4000,0.2000*
1,1,0.1000,0.4000,-0.2000*
%
%ADD19ROUNDEDRECTD19*%
G04:AMPARAMS|DCode=20|XSize=1.1mm|YSize=1.25mm|CornerRadius=0.11mm|HoleSize=0mm|Usage=FLASHONLY|Rotation=270.000|XOffset=0mm|YOffset=0mm|HoleType=Round|Shape=RoundedRectangle|*
%AMROUNDEDRECTD20*
21,1,1.1000,1.0300,0,0,270.0*
21,1,0.8800,1.2500,0,0,270.0*
1,1,0.2200,-0.5150,-0.4400*
1,1,0.2200,-0.5150,0.4400*
1,1,0.2200,0.5150,0.4400*
1,1,0.2200,0.5150,-0.4400*
%
%ADD20ROUNDEDRECTD20*%
G04:AMPARAMS|DCode=21|XSize=0.72mm|YSize=1.8mm|CornerRadius=0.072mm|HoleSize=0mm|Usage=FLASHONLY|Rotation=0.000|XOffset=0mm|YOffset=0mm|HoleType=Round|Shape=RoundedRectangle|*
%AMROUNDEDRECTD21*
21,1,0.7200,1.6560,0,0,0.0*
21,1,0.5760,1.8000,0,0,0.0*
1,1,0.1440,0.2880,-0.8280*
1,1,0.1440,-0.2880,-0.8280*
1,1,0.1440,-0.2880,0.8280*
1,1,0.1440,0.2880,0.8280*
%
%ADD21ROUNDEDRECTD21*%
%ADD22C,1.5000*%
G36*
X170000Y485000D02*
Y425000D01*
X165000Y420000D01*
X90000Y420000D01*
X85000Y425000D01*
X85000Y485000D01*
X90000Y490000D01*
X165000Y490000D01*
X170000Y485000D01*
D02*
G37*
G36*
X376000Y478495D02*
X376000Y425000D01*
X187500D01*
X183000Y429500D01*
X183000Y485500D01*
X187500Y490000D01*
X364495Y490000D01*
X376000Y478495D01*
D02*
G37*
G36*
X484000Y457000D02*
Y435000D01*
X478000Y429000D01*
X459221Y429000D01*
X458500Y429095D01*
X457779Y429000D01*
X453000D01*
X444000Y420000D01*
X444000Y406000D01*
X394000Y406000D01*
X394000Y457000D01*
X400000Y463000D01*
X478000D01*
X484000Y457000D01*
D02*
G37*
G36*
X579000Y463000D02*
X585000Y457000D01*
X585000Y437000D01*
X579000Y431000D01*
X571000Y423000D01*
Y406000D01*
X520000D01*
X520000Y422000D01*
X511000Y431000D01*
X505000Y437000D01*
X505000Y457000D01*
X511000Y463000D01*
X579000Y463000D01*
D02*
G37*
G36*
X696500Y457500D02*
X696500Y406000D01*
X647000D01*
Y425000D01*
X641000Y431000D01*
X612000Y431000D01*
X606000Y437000D01*
Y457000D01*
X612000Y463000D01*
X691000Y463000D01*
X696500Y457500D01*
D02*
G37*
D14*
X282600Y38000D02*
D03*
X308000D02*
D03*
X333400D02*
D03*
X358800D02*
D03*
X257200D02*
D03*
X409600D02*
D03*
X384200D02*
D03*
X435000D02*
D03*
X460400D02*
D03*
X485800D02*
D03*
X511200D02*
D03*
X562000D02*
D03*
X536600D02*
D03*
X612800D02*
D03*
X587400D02*
D03*
X282600Y292000D02*
D03*
X308000D02*
D03*
X333400D02*
D03*
X358800D02*
D03*
X257200D02*
D03*
X409600D02*
D03*
X384200D02*
D03*
X435000D02*
D03*
X460400D02*
D03*
X485800D02*
D03*
X511200D02*
D03*
X562000D02*
D03*
X536600D02*
D03*
X612800D02*
D03*
X587400D02*
D03*
D15*
X740000Y40000D02*
D03*
Y460000D02*
D03*
X40000D02*
D03*
Y40000D02*
D03*
D16*
X420000Y445000D02*
D03*
X520000D02*
D03*
X470000D02*
D03*
X620000D02*
D03*
X670000D02*
D03*
X570000D02*
D03*
X272500D02*
D03*
X347500D02*
D03*
X122500D02*
D03*
X197500D02*
D03*
D17*
X92500Y468750D02*
D03*
Y455000D02*
D03*
Y441250D02*
D03*
X162500D02*
D03*
X148500Y482500D02*
D03*
X120500D02*
D03*
X134500D02*
D03*
X106500D02*
D03*
Y427500D02*
D03*
X134500D02*
D03*
X120500D02*
D03*
X148500D02*
D03*
X162500Y455000D02*
D03*
Y468750D02*
D03*
X162500Y427500D02*
D03*
X162500Y482500D02*
D03*
X92500Y482500D02*
D03*
Y427500D02*
D03*
X319000Y405000D02*
D03*
X585500Y418000D02*
D03*
X458500D02*
D03*
X678350Y343050D02*
D03*
X665650D02*
D03*
X691050D02*
D03*
Y330500D02*
D03*
X665650D02*
D03*
X678350D02*
D03*
X551350Y343050D02*
D03*
X538650D02*
D03*
X564050D02*
D03*
Y330500D02*
D03*
X538650D02*
D03*
X551350D02*
D03*
X424850D02*
D03*
X412150D02*
D03*
X437550D02*
D03*
Y343050D02*
D03*
X412150D02*
D03*
X424850D02*
D03*
D18*
X560600Y311000D02*
G03*
X586000Y336400I0J25400D01*
G01*
X547000Y311000D02*
G03*
X536600Y300600I0J-10400D01*
G01*
X315439Y329440D02*
G03*
X308000Y311479I17960J-17960D01*
G01*
X584000Y476000D02*
X596000Y464000D01*
X511000Y476000D02*
X584000D01*
X596000Y431000D02*
Y464000D01*
X496000Y461000D02*
X511000Y476000D01*
X547000Y311000D02*
X560600D01*
X536600Y292000D02*
Y300600D01*
X586000Y336400D02*
Y346000D01*
X308000Y292000D02*
Y311479D01*
X459000Y292000D02*
Y346000D01*
Y292000D02*
X460400D01*
X585500Y366000D02*
Y385500D01*
Y366000D02*
X586000D01*
X458500D02*
Y385500D01*
Y366000D02*
X459000D01*
X315439Y329440D02*
X332000Y346000D01*
X257200Y292000D02*
Y445000D01*
X272500D01*
X352000D02*
X373500D01*
Y415000D02*
Y445000D01*
X319000Y405000D02*
X331500D01*
X332000Y404500D01*
X496000Y416000D02*
X500000D01*
X496000D02*
Y461000D01*
X332000Y366000D02*
X332000Y366000D01*
Y385500D01*
X324000Y476000D02*
X481000D01*
X496000Y461000D01*
X596000Y431000D02*
X612000Y415000D01*
X627000D01*
X585500Y404500D02*
Y418000D01*
X458500Y404500D02*
Y418000D01*
X665650Y343050D02*
Y363500D01*
X678350Y343050D02*
Y363500D01*
X691050Y343050D02*
Y363500D01*
X538650Y343050D02*
Y363500D01*
X551350Y343050D02*
Y363500D01*
X564050Y343050D02*
Y363500D01*
X437550Y343050D02*
Y363500D01*
X424850Y343050D02*
Y363500D01*
X412150Y343050D02*
Y363500D01*
X627000Y395000D02*
Y395000D01*
Y380000D02*
Y395000D01*
X652950Y360000D02*
Y363500D01*
X608500Y395000D02*
X627000D01*
Y360000D02*
X652950D01*
X500000D02*
X525950D01*
Y363500D01*
X481500Y395000D02*
X500000D01*
Y380000D02*
Y395000D01*
Y395000D01*
X373500Y395000D02*
Y395000D01*
Y380000D02*
Y395000D01*
X355000D02*
X373500D01*
Y360000D02*
X399450D01*
Y363500D01*
D19*
X608500Y395000D02*
D03*
X585500Y404500D02*
D03*
Y385500D02*
D03*
X481500Y395000D02*
D03*
X458500Y404500D02*
D03*
Y385500D02*
D03*
X355000Y395000D02*
D03*
X332000Y404500D02*
D03*
Y385500D02*
D03*
D20*
X627000Y415000D02*
D03*
Y395000D02*
D03*
X586000Y366000D02*
D03*
Y346000D02*
D03*
X627000Y380000D02*
D03*
Y360000D02*
D03*
X500000Y380000D02*
D03*
Y360000D02*
D03*
X459000Y366000D02*
D03*
Y346000D02*
D03*
X500000Y415000D02*
D03*
Y395000D02*
D03*
X332000Y366000D02*
D03*
Y346000D02*
D03*
X373500Y380000D02*
D03*
Y360000D02*
D03*
Y415000D02*
D03*
Y395000D02*
D03*
D21*
X691050Y363500D02*
D03*
X678350D02*
D03*
X665650D02*
D03*
X652950D02*
D03*
X691050Y416500D02*
D03*
X678350D02*
D03*
X665650D02*
D03*
X652950D02*
D03*
X564050Y363500D02*
D03*
X551350D02*
D03*
X538650D02*
D03*
X525950D02*
D03*
X564050Y416500D02*
D03*
X551350D02*
D03*
X538650D02*
D03*
X525950D02*
D03*
X437550Y363500D02*
D03*
X424850D02*
D03*
X412150D02*
D03*
X399450D02*
D03*
X437550Y416500D02*
D03*
X424850D02*
D03*
X412150D02*
D03*
X399450D02*
D03*
D22*
X678350Y343050D02*
X691050D01*
X665650D02*
X678350D01*
X691050Y330500D02*
Y343050D01*
X665650Y330500D02*
X678350D01*
X691050D01*
X665650D02*
Y343050D01*
X551350D02*
X564050D01*
X538650D02*
X551350D01*
X564050Y330500D02*
Y343050D01*
X538650Y330500D02*
X551350D01*
X564050D01*
X538650D02*
Y343050D01*
X412150Y330500D02*
Y343050D01*
X424850Y330500D02*
X437550D01*
X412150D02*
X424850D01*
X437550D02*
Y343050D01*
X412150D02*
X424850D01*
X437550D01*
M02*
