G04*
G04 #@! TF.GenerationSoftware,Altium Limited,Altium Designer,20.2.7 (254)*
G04*
G04 Layer_Color=16711935*
%FSLAX44Y44*%
%MOMM*%
G71*
G04*
G04 #@! TF.SameCoordinates,755CDBE2-D8D4-478F-80D2-7ADFAB3A315B*
G04*
G04*
G04 #@! TF.FilePolarity,Negative*
G04*
G01*
G75*
%ADD11C,1.8500*%
%ADD12C,3.3000*%
%ADD13C,2.1000*%
G04:AMPARAMS|DCode=23|XSize=0.7mm|YSize=1.1mm|CornerRadius=0.15mm|HoleSize=0mm|Usage=FLASHONLY|Rotation=270.000|XOffset=0mm|YOffset=0mm|HoleType=Round|Shape=RoundedRectangle|*
%AMROUNDEDRECTD23*
21,1,0.7000,0.8000,0,0,270.0*
21,1,0.4000,1.1000,0,0,270.0*
1,1,0.3000,-0.4000,-0.2000*
1,1,0.3000,-0.4000,0.2000*
1,1,0.3000,0.4000,0.2000*
1,1,0.3000,0.4000,-0.2000*
%
%ADD23ROUNDEDRECTD23*%
G04:AMPARAMS|DCode=24|XSize=1.2mm|YSize=1.35mm|CornerRadius=0.16mm|HoleSize=0mm|Usage=FLASHONLY|Rotation=270.000|XOffset=0mm|YOffset=0mm|HoleType=Round|Shape=RoundedRectangle|*
%AMROUNDEDRECTD24*
21,1,1.2000,1.0300,0,0,270.0*
21,1,0.8800,1.3500,0,0,270.0*
1,1,0.3200,-0.5150,-0.4400*
1,1,0.3200,-0.5150,0.4400*
1,1,0.3200,0.5150,0.4400*
1,1,0.3200,0.5150,-0.4400*
%
%ADD24ROUNDEDRECTD24*%
G04:AMPARAMS|DCode=25|XSize=0.92mm|YSize=2mm|CornerRadius=0.172mm|HoleSize=0mm|Usage=FLASHONLY|Rotation=0.000|XOffset=0mm|YOffset=0mm|HoleType=Round|Shape=RoundedRectangle|*
%AMROUNDEDRECTD25*
21,1,0.9200,1.6560,0,0,0.0*
21,1,0.5760,2.0000,0,0,0.0*
1,1,0.3440,0.2880,-0.8280*
1,1,0.3440,-0.2880,-0.8280*
1,1,0.3440,-0.2880,0.8280*
1,1,0.3440,0.2880,0.8280*
%
%ADD25ROUNDEDRECTD25*%
G36*
X85000Y485000D02*
X90000Y490000D01*
Y490000D01*
X165000D01*
X170000Y485000D01*
Y427500D01*
X170000Y427500D01*
Y425000D01*
X165000Y420000D01*
X90000D01*
X85000Y425000D01*
Y485000D01*
D02*
G37*
G36*
X183000Y429500D02*
X187500Y425000D01*
X376000D01*
X376000Y478524D01*
X364524Y490000D01*
X187500Y490000D01*
X183000Y485500D01*
X183000Y429500D01*
D02*
G37*
G36*
X394000Y457000D02*
X400000Y463000D01*
X478000D01*
X484000Y457000D01*
Y435000D01*
X478000Y429000D01*
X394000D01*
Y457000D01*
D02*
G37*
G36*
X505000D02*
X511000Y463000D01*
X579000D01*
X585000Y457000D01*
Y437000D01*
X577000Y429000D01*
X513000D01*
X505000Y437000D01*
Y457000D01*
D02*
G37*
G36*
X612000Y431000D02*
X606000Y437000D01*
Y457000D01*
X612000Y463000D01*
X691000D01*
X696500Y457500D01*
Y431000D01*
X612000D01*
D02*
G37*
D11*
X282600Y38000D02*
D03*
X308000D02*
D03*
X333400D02*
D03*
X358800D02*
D03*
X257200D02*
D03*
X409600D02*
D03*
X384200D02*
D03*
X435000D02*
D03*
X460400D02*
D03*
X485800D02*
D03*
X511200D02*
D03*
X562000D02*
D03*
X536600D02*
D03*
X612800D02*
D03*
X587400D02*
D03*
X282600Y292000D02*
D03*
X308000D02*
D03*
X333400D02*
D03*
X358800D02*
D03*
X257200D02*
D03*
X409600D02*
D03*
X384200D02*
D03*
X435000D02*
D03*
X460400D02*
D03*
X485800D02*
D03*
X511200D02*
D03*
X562000D02*
D03*
X536600D02*
D03*
X612800D02*
D03*
X587400D02*
D03*
D12*
X740000Y40000D02*
D03*
Y460000D02*
D03*
X40000D02*
D03*
Y40000D02*
D03*
D13*
X420000Y445000D02*
D03*
X520000D02*
D03*
X470000D02*
D03*
X620000D02*
D03*
X670000D02*
D03*
X570000D02*
D03*
X272500D02*
D03*
X347500D02*
D03*
X122500D02*
D03*
X197500D02*
D03*
D23*
X608500Y395000D02*
D03*
X585500Y404500D02*
D03*
Y385500D02*
D03*
X481500Y395000D02*
D03*
X458500Y404500D02*
D03*
Y385500D02*
D03*
X355000Y395000D02*
D03*
X332000Y404500D02*
D03*
Y385500D02*
D03*
D24*
X627000Y415000D02*
D03*
Y395000D02*
D03*
X586000Y366000D02*
D03*
Y346000D02*
D03*
X627000Y380000D02*
D03*
Y360000D02*
D03*
X500000Y380000D02*
D03*
Y360000D02*
D03*
X459000Y366000D02*
D03*
Y346000D02*
D03*
X500000Y415000D02*
D03*
Y395000D02*
D03*
X332000Y366000D02*
D03*
Y346000D02*
D03*
X373500Y380000D02*
D03*
Y360000D02*
D03*
Y415000D02*
D03*
Y395000D02*
D03*
D25*
X691050Y363500D02*
D03*
X678350D02*
D03*
X665650D02*
D03*
X652950D02*
D03*
X691050Y416500D02*
D03*
X678350D02*
D03*
X665650D02*
D03*
X652950D02*
D03*
X564050Y363500D02*
D03*
X551350D02*
D03*
X538650D02*
D03*
X525950D02*
D03*
X564050Y416500D02*
D03*
X551350D02*
D03*
X538650D02*
D03*
X525950D02*
D03*
X437550Y363500D02*
D03*
X424850D02*
D03*
X412150D02*
D03*
X399450D02*
D03*
X437550Y416500D02*
D03*
X424850D02*
D03*
X412150D02*
D03*
X399450D02*
D03*
M02*
